PathFileType	4	(X/Y/Z)	c:/Users/goper/Files/vsCode/490R/osim_files/A05/A05_Static01.trc
DataRate	CameraRate	NumFrames	NumMarkers	Units                	OrigDataRate	OrigDataStartFrame	OrigNumFrames
250.00	250.00	9	36	mm	250.0	1	3502
                Frame#	Time	LPSIS			LASIS			LTH1			LTH2			LTH3			LTH4			LLFE			LMFE			LSH1			LSH2			LSH3			LSH4			LLMAL			LMMAL			LCAL			LMTP5			LTOE			LMTP1			RPSIS			RASIS			RTH1			RTH2			RTH3			RTH4			RLFE			RMFE			RSH1			RSH2			RSH3			RSH4			RLMAL			RMMAL			RCAL			RMTP1			RTOE			RMTP5		
		X1	Y1	Z1	X2	Y2	Z2	X3	Y3	Z3	X4	Y4	Z4	X5	Y5	Z5	X6	Y6	Z6	X7	Y7	Z7	X8	Y8	Z8	X9	Y9	Z9	X10	Y10	Z10	X11	Y11	Z11	X12	Y12	Z12	X13	Y13	Z13	X14	Y14	Z14	X15	Y15	Z15	X16	Y16	Z16	X17	Y17	Z17	X18	Y18	Z18	X19	Y19	Z19	X20	Y20	Z20	X21	Y21	Z21	X22	Y22	Z22	X23	Y23	Z23	X24	Y24	Z24	X25	Y25	Z25	X26	Y26	Z26	X27	Y27	Z27	X28	Y28	Z28	X29	Y29	Z29	X30	Y30	Z30	X31	Y31	Z31	X32	Y32	Z32	X33	Y33	Z33	X34	Y34	Z34	X35	Y35	Z35	X36	Y36	Z36

1	0.00000	0.00000	0.00000	0.00000	343.45547	968.79364	267.24774	0.00000	0.00000	0.00000	232.97606	649.33447	238.76239	277.43576	701.85699	218.62067	282.43436	658.59503	221.22037	298.48883	480.77478	242.11572	305.22440	475.82867	341.18518	258.31906	387.76392	233.59264	251.52620	341.13956	232.08432	316.67691	376.25723	242.11839	304.32123	332.74164	237.09319	255.87460	117.19033	233.04984	261.38550	119.44460	322.82187	174.57639	66.91534	289.96832	380.62451	49.57149	200.19514	435.09793	70.72347	259.05905	395.89755	63.59932	308.88416	174.58519	995.21393	484.88602	363.54724	976.04590	581.58154	324.72870	626.94928	621.52612	336.47650	587.61945	612.43665	384.29453	641.45746	604.42560	386.70700	594.63861	595.31110	310.48489	515.90271	599.70227	339.79126	501.14966	463.09927	220.21501	268.98679	579.18732	212.38260	224.96173	569.02332	279.98874	252.49217	580.10730	260.61108	207.78316	572.46008	198.82275	111.32689	544.27686	250.84015	134.59036	461.66254	152.64444	69.92908	452.71008	363.31262	59.13323	490.95892	384.05215	66.11028	550.03595	308.22064	43.15494	597.75415
2	0.00400	0.00000	0.00000	0.00000	343.44263	968.79620	267.26358	0.00000	0.00000	0.00000	232.94296	649.32385	238.77492	277.47839	701.89642	218.56549	282.41428	658.61316	221.24918	298.48035	480.77676	242.09850	305.19812	475.80374	341.16391	258.33795	387.76779	233.55284	251.50482	341.14191	232.04349	316.68454	376.28406	242.10922	304.32800	332.73431	237.08301	255.85835	117.18945	233.04672	261.40173	119.44939	322.83008	175.04257	67.14912	289.26642	380.62863	49.58167	200.19624	435.09290	70.72345	259.06998	395.91034	63.58885	308.89835	174.60411	995.24963	484.84677	363.52121	976.03040	581.56720	324.74384	626.94458	621.53955	336.52448	587.65033	612.43250	384.31567	641.47693	604.40802	386.72589	594.63422	595.30243	310.47479	515.90472	599.69843	339.81281	501.16666	463.08820	220.22491	268.95523	579.16504	212.38344	224.97185	569.01917	279.98508	252.49622	580.10272	260.61688	207.80620	572.47003	198.81244	111.28786	544.24902	250.84259	134.59506	461.65372	152.61995	69.90637	452.70679	363.34283	59.14773	490.95312	384.03903	66.10718	550.04382	308.25858	43.13342	597.76721
3	0.00800	0.00000	0.00000	0.00000	343.45230	968.80383	267.25311	0.00000	0.00000	0.00000	232.95412	649.35516	238.75134	277.47122	701.90906	218.53883	282.41815	658.63116	221.24013	298.47000	480.77420	242.08408	305.23932	475.81439	341.18817	258.32166	387.79019	233.56084	251.78883	341.48932	231.85806	316.68085	376.29037	242.11823	304.34103	332.72549	237.08293	255.87468	117.22450	233.04164	261.36707	119.44272	322.83594	174.53418	67.00555	289.94632	380.63629	49.56479	200.18231	435.07285	70.71873	259.08395	395.90118	63.60189	308.89728	174.61691	995.21387	484.84930	363.49509	976.03174	581.58020	324.69254	626.93646	621.52380	336.46146	587.60883	612.42023	384.25165	641.45105	604.40997	386.67404	594.62891	595.31219	310.44583	515.89618	599.70190	339.78439	501.14917	463.08054	220.18811	268.92191	579.14935	212.27515	224.84415	568.97217	279.97363	252.51099	580.10571	260.63522	207.82755	572.46533	198.60843	111.16602	544.22595	250.81853	134.57838	461.66635	152.60962	69.93304	452.68506	363.30469	59.12007	490.95190	384.05649	66.12727	550.03839	308.23734	43.13094	597.77515
4	0.01200	0.00000	0.00000	0.00000	343.49997	968.81128	267.22421	0.00000	0.00000	0.00000	232.94852	649.34534	238.76932	277.48193	701.90125	218.53438	282.41010	658.63751	221.23802	298.45239	480.77731	242.10931	305.22089	475.76776	341.19131	258.33051	387.80283	233.57300	252.12892	341.88055	231.61459	316.66409	376.24020	242.10031	304.33835	332.72659	237.09138	255.90114	117.24923	233.00684	261.36575	119.42763	322.82394	174.58015	67.07713	289.92230	380.62848	49.56208	200.19708	435.06268	70.70586	259.08270	395.87747	63.59800	308.88992	174.62836	995.21857	484.82306	363.46317	976.03998	581.59326	324.65930	626.92291	621.50629	336.44012	587.61829	612.40228	384.24463	641.45483	604.41840	386.62744	594.61011	595.30554	310.38998	515.87451	599.68439	339.78525	501.12570	463.11353	220.15527	268.89923	579.14630	212.15509	224.76781	568.87531	279.95227	252.49556	580.11566	260.58817	207.79713	572.44965	198.75627	111.26678	544.21204	250.79597	134.54163	461.67218	152.64850	69.95907	452.67688	363.29633	59.14009	490.95300	384.01791	66.14145	550.03802	308.18784	43.12818	597.74017
5	0.01600	0.00000	0.00000	0.00000	343.46133	968.82123	267.23462	0.00000	0.00000	0.00000	232.97665	649.37274	238.74272	277.46762	701.90314	218.55658	282.40775	658.61163	221.23456	298.47232	480.78836	242.09766	305.23849	475.77408	341.19006	258.29227	387.77332	233.59148	252.07501	341.72778	231.85378	316.65289	376.21042	242.12677	304.32782	332.68796	237.08954	255.91071	117.24424	233.00578	261.31949	119.42906	322.81247	174.90599	67.84215	288.42230	380.64954	49.55556	200.18858	435.05029	70.72845	259.08548	395.87552	63.59992	308.88651	174.59288	995.21539	484.86639	363.44089	976.00854	581.59796	324.63654	626.90417	621.49908	336.40305	587.59589	612.39502	384.20322	641.43756	604.42249	386.63455	594.60199	595.31274	310.37805	515.88251	599.68756	339.80505	501.14175	463.10150	220.13673	268.90585	579.11139	212.11385	224.73672	568.84210	279.91736	252.49684	580.11371	260.58032	207.82063	572.45038	198.73875	111.26543	544.20856	250.79425	134.54884	461.67825	152.63972	69.92380	452.68414	363.27374	59.11684	490.93436	384.00400	66.13895	550.02106	308.17920	43.15387	597.75488
6	0.02000	0.00000	0.00000	0.00000	343.47681	968.81458	267.22382	0.00000	0.00000	0.00000	232.95076	649.34937	238.73064	277.48026	701.90704	218.53706	282.43369	658.62335	221.20296	298.48227	480.77502	242.07173	305.21234	475.76022	341.17587	258.33835	387.78284	233.56726	252.14021	341.87149	231.61317	316.68472	376.23734	242.11101	304.33450	332.69830	237.08923	255.87592	117.21265	233.02632	261.34027	119.43341	322.79788	174.52924	67.00185	290.00452	380.64474	49.55160	200.18553	435.05692	70.74962	259.07016	395.88760	63.61026	308.88150	174.64398	995.19061	484.81696	363.45520	976.02991	581.57794	324.63718	626.90381	621.50226	336.40967	587.59222	612.40002	384.22632	641.42780	604.40417	386.64645	594.60541	595.31671	310.41583	515.90613	599.70898	339.79816	501.12177	463.09705	220.47722	268.68494	579.66144	212.17041	224.82675	568.85004	279.94525	252.51077	580.10352	260.58682	207.80399	572.45673	198.58784	111.13686	544.15161	250.83920	134.57214	461.65320	152.62505	69.87850	452.71484	363.29166	59.13285	490.92801	384.02081	66.14161	550.00500	307.81845	42.80849	597.81647
7	0.02400	0.00000	0.00000	0.00000	343.44348	968.78668	267.22849	0.00000	0.00000	0.00000	232.99805	649.34644	238.71207	277.49384	701.86377	218.53703	282.45001	658.62976	221.20009	298.47528	480.75571	242.08852	305.23206	475.77029	341.16071	258.29291	387.76266	233.60013	252.04846	341.67780	231.88274	316.69217	376.22150	242.10381	304.34222	332.70456	237.07483	255.87886	117.19234	233.02890	261.40845	119.46941	322.80136	175.02971	67.08907	289.28149	380.62378	49.54098	200.17566	435.08386	70.75658	259.05841	395.91336	63.62245	308.87650	174.65324	995.18457	484.84549	363.46161	976.02734	581.58618	324.62070	626.89691	621.49701	336.43732	587.60846	612.40436	384.24844	641.46063	604.40167	386.64413	594.62250	595.31836	310.42902	515.90356	599.71100	339.82050	501.12491	463.08777	220.11539	268.91162	579.06860	212.19888	224.85811	568.87329	279.93472	252.49429	580.09894	260.57092	207.80386	572.43958	198.59253	111.13450	544.16925	250.81894	134.54469	461.64151	152.63960	69.88625	452.68631	363.29855	59.15250	490.91800	384.03415	66.14955	550.01514	308.31891	43.11928	597.79279
8	0.02800	0.00000	0.00000	0.00000	343.47260	968.78735	267.21555	0.00000	0.00000	0.00000	232.97789	649.32080	238.75531	277.45947	701.83539	218.57153	282.41318	658.58173	221.21170	298.47296	480.74390	242.09366	305.21204	475.78653	341.16803	258.31897	387.73456	233.59071	252.10161	341.83105	231.62859	316.71640	376.24860	242.09616	304.33133	332.68671	237.06859	255.88759	117.17671	233.01608	261.38074	119.44630	322.80310	0.00000	0.00000	0.00000	380.63089	49.54911	200.18434	435.10068	70.75053	259.04950	395.90796	63.60777	308.86911	174.63095	995.16205	484.83627	363.45795	976.00568	581.58185	324.60516	626.87738	621.47064	336.41638	587.61072	612.42639	384.24036	641.43976	604.39478	386.66196	594.59283	595.28033	310.42010	515.89008	599.70190	339.81601	501.11923	463.08096	220.14261	268.91040	579.10956	212.19022	224.86781	568.87360	279.94092	252.47716	580.10907	260.38318	207.77493	572.06067	198.74562	111.25569	544.19019	250.83292	134.55574	461.63461	152.64183	69.83774	452.70700	363.29636	59.12714	490.92935	384.03442	66.14756	550.02136	307.84885	42.85075	597.82001
9	0.03200	0.00000	0.00000	0.00000	343.45020	968.74817	267.24231	0.00000	0.00000	0.00000	233.00055	649.30255	238.72786	277.47235	701.83807	218.53665	282.43817	658.58350	221.20226	298.45358	480.72803	242.08865	305.24857	475.82452	341.17804	258.34662	387.75110	233.55453	252.13844	341.84271	231.56458	316.71460	376.25302	242.08636	304.34476	332.68738	237.06029	255.87825	117.16101	233.03833	261.32779	119.39725	322.81958	174.49446	66.84483	290.09991	380.62057	49.53409	200.18376	435.02408	70.68372	259.08038	395.85864	63.56121	308.89453	174.67442	995.12396	484.80750	363.42178	975.99017	581.58923	324.60007	626.88538	621.50000	336.37628	587.59601	612.42859	384.21518	641.41516	604.40399	386.61740	594.56799	595.30750	310.36371	515.85986	599.70758	339.79321	501.08304	463.08066	220.06960	268.88022	579.11475	212.16127	224.80002	568.89905	279.89981	252.44591	580.12286	260.51544	207.74753	572.48682	198.68401	111.20046	544.22504	250.79237	134.55476	461.65948	152.62138	69.84201	452.72586	363.26935	59.10946	490.93689	384.01331	66.09069	550.03223	308.24643	43.08889	597.78546
